<?xml version="1.0" encoding="UTF-8" standalone="no"?>
<!DOCTYPE svg PUBLIC "-//W3C//DTD SVG 1.1//EN"
 "http://www.w3.org/Graphics/SVG/1.1/DTD/svg11.dtd">
<!-- Generated by graphviz version 2.47.0 (20210316.0004)
 -->
<!-- Title: dbml Pages: 1 -->
<svg width="2152pt" height="922pt"
 viewBox="0.00 0.00 2152.47 921.63" xmlns="http://www.w3.org/2000/svg" xmlns:xlink="http://www.w3.org/1999/xlink">
<g id="graph0" class="graph" transform="scale(1 1) rotate(0) translate(4 917.63)">
<title>dbml</title>
<!-- Techniciens -->
<g id="Techniciens" class="node">
<title>Techniciens</title>
<ellipse fill="none" stroke="black" stroke-width="0" cx="1917.49" cy="-347.39" rx="226.96" ry="130.22"/>
<polygon fill="#1d71b8" stroke="transparent" points="1759.49,-377.39 1759.49,-437.39 2076.49,-437.39 2076.49,-377.39 1759.49,-377.39"/>
<polygon fill="none" stroke="#29235c" points="1759.49,-377.39 1759.49,-437.39 2076.49,-437.39 2076.49,-377.39 1759.49,-377.39"/>
<text text-anchor="start" x="1770.39" y="-398.59" font-family="Helvetica,sans-Serif" font-weight="bold" font-size="32.00" fill="#ffffff"> &#160;&#160;&#160;&#160;&#160;&#160;Techniciens &#160;&#160;&#160;&#160;&#160;&#160;</text>
<polygon fill="#e7e2dd" stroke="transparent" points="1759.49,-317.39 1759.49,-377.39 2076.49,-377.39 2076.49,-317.39 1759.49,-317.39"/>
<polygon fill="none" stroke="#29235c" points="1759.49,-317.39 1759.49,-377.39 2076.49,-377.39 2076.49,-317.39 1759.49,-317.39"/>
<text text-anchor="start" x="1770.49" y="-338.59" font-family="Helvetica,sans-Serif" font-weight="bold" font-size="32.00" fill="#29235c">ID</text>
<text text-anchor="start" x="1802.48" y="-338.59" font-family="Helvetica,sans-Serif" font-size="32.00" fill="#29235c"> &#160;&#160;&#160;</text>
<text text-anchor="start" x="2031.7" y="-338.59" font-family="Helvetica,sans-Serif" font-style="italic" font-size="32.00" fill="#29235c">int</text>
<polygon fill="#e7e2dd" stroke="transparent" points="1759.49,-257.39 1759.49,-317.39 2076.49,-317.39 2076.49,-257.39 1759.49,-257.39"/>
<polygon fill="none" stroke="#29235c" points="1759.49,-257.39 1759.49,-317.39 2076.49,-317.39 2076.49,-257.39 1759.49,-257.39"/>
<text text-anchor="start" x="1770.49" y="-277.59" font-family="Helvetica,sans-Serif" font-size="32.00" fill="#29235c">Nom &#160;&#160;&#160;</text>
<text text-anchor="start" x="1884.14" y="-278.59" font-family="Helvetica,sans-Serif" font-style="italic" font-size="32.00" fill="#29235c">varchar(255)</text>
<polygon fill="none" stroke="#29235c" stroke-width="2" points="1757.99,-256.39 1757.99,-438.39 2076.99,-438.39 2076.99,-256.39 1757.99,-256.39"/>
</g>
<!-- Utilisateurs -->
<g id="Utilisateurs" class="node">
<title>Utilisateurs</title>
<ellipse fill="none" stroke="black" stroke-width="0" cx="1407.72" cy="-705.39" rx="219.41" ry="172.57"/>
<polygon fill="#1d71b8" stroke="transparent" points="1254.72,-765.39 1254.72,-825.39 1560.72,-825.39 1560.72,-765.39 1254.72,-765.39"/>
<polygon fill="none" stroke="#29235c" points="1254.72,-765.39 1254.72,-825.39 1560.72,-825.39 1560.72,-765.39 1254.72,-765.39"/>
<text text-anchor="start" x="1266.37" y="-786.59" font-family="Helvetica,sans-Serif" font-weight="bold" font-size="32.00" fill="#ffffff"> &#160;&#160;&#160;&#160;&#160;&#160;Utilisateurs &#160;&#160;&#160;&#160;&#160;&#160;</text>
<polygon fill="#e7e2dd" stroke="transparent" points="1254.72,-705.39 1254.72,-765.39 1560.72,-765.39 1560.72,-705.39 1254.72,-705.39"/>
<polygon fill="none" stroke="#29235c" points="1254.72,-705.39 1254.72,-765.39 1560.72,-765.39 1560.72,-705.39 1254.72,-705.39"/>
<text text-anchor="start" x="1265.72" y="-726.59" font-family="Helvetica,sans-Serif" font-weight="bold" font-size="32.00" fill="#29235c">ID</text>
<text text-anchor="start" x="1297.72" y="-726.59" font-family="Helvetica,sans-Serif" font-size="32.00" fill="#29235c"> &#160;&#160;&#160;</text>
<text text-anchor="start" x="1515.94" y="-726.59" font-family="Helvetica,sans-Serif" font-style="italic" font-size="32.00" fill="#29235c">int</text>
<polygon fill="#e7e2dd" stroke="transparent" points="1254.72,-645.39 1254.72,-705.39 1560.72,-705.39 1560.72,-645.39 1254.72,-645.39"/>
<polygon fill="none" stroke="#29235c" points="1254.72,-645.39 1254.72,-705.39 1560.72,-705.39 1560.72,-645.39 1254.72,-645.39"/>
<text text-anchor="start" x="1265.67" y="-665.59" font-family="Helvetica,sans-Serif" font-size="32.00" fill="#29235c">Nom &#160;&#160;&#160;</text>
<text text-anchor="start" x="1368.55" y="-666.59" font-family="Helvetica,sans-Serif" font-style="italic" font-size="32.00" fill="#29235c">varchar(255)</text>
<polygon fill="#e7e2dd" stroke="transparent" points="1254.72,-585.39 1254.72,-645.39 1560.72,-645.39 1560.72,-585.39 1254.72,-585.39"/>
<polygon fill="none" stroke="#29235c" points="1254.72,-585.39 1254.72,-645.39 1560.72,-645.39 1560.72,-585.39 1254.72,-585.39"/>
<text text-anchor="start" x="1265.67" y="-605.59" font-family="Helvetica,sans-Serif" font-size="32.00" fill="#29235c">Droit &#160;&#160;&#160;</text>
<text text-anchor="start" x="1368.55" y="-606.59" font-family="Helvetica,sans-Serif" font-style="italic" font-size="32.00" fill="#29235c">varchar(255)</text>
<polygon fill="none" stroke="#29235c" stroke-width="2" points="1253.72,-584.39 1253.72,-826.39 1561.72,-826.39 1561.72,-584.39 1253.72,-584.39"/>
</g>
<!-- Maintenances -->
<g id="Maintenances" class="node">
<title>Maintenances</title>
<ellipse fill="none" stroke="black" stroke-width="0" cx="1407.72" cy="-257.39" rx="246.56" ry="257.27"/>
<polygon fill="#1d71b8" stroke="transparent" points="1235.72,-377.39 1235.72,-437.39 1580.72,-437.39 1580.72,-377.39 1235.72,-377.39"/>
<polygon fill="none" stroke="#29235c" points="1235.72,-377.39 1235.72,-437.39 1580.72,-437.39 1580.72,-377.39 1235.72,-377.39"/>
<text text-anchor="start" x="1246.39" y="-398.59" font-family="Helvetica,sans-Serif" font-weight="bold" font-size="32.00" fill="#ffffff"> &#160;&#160;&#160;&#160;&#160;&#160;Maintenances &#160;&#160;&#160;&#160;&#160;&#160;</text>
<polygon fill="#e7e2dd" stroke="transparent" points="1235.72,-317.39 1235.72,-377.39 1580.72,-377.39 1580.72,-317.39 1235.72,-317.39"/>
<polygon fill="none" stroke="#29235c" points="1235.72,-317.39 1235.72,-377.39 1580.72,-377.39 1580.72,-317.39 1235.72,-317.39"/>
<text text-anchor="start" x="1246.72" y="-338.59" font-family="Helvetica,sans-Serif" font-weight="bold" font-size="32.00" fill="#29235c">ID</text>
<text text-anchor="start" x="1278.72" y="-338.59" font-family="Helvetica,sans-Serif" font-size="32.00" fill="#29235c"> &#160;&#160;&#160;</text>
<text text-anchor="start" x="1535.94" y="-338.59" font-family="Helvetica,sans-Serif" font-style="italic" font-size="32.00" fill="#29235c">int</text>
<polygon fill="#e7e2dd" stroke="transparent" points="1235.72,-257.39 1235.72,-317.39 1580.72,-317.39 1580.72,-257.39 1235.72,-257.39"/>
<polygon fill="none" stroke="#29235c" points="1235.72,-257.39 1235.72,-317.39 1580.72,-317.39 1580.72,-257.39 1235.72,-257.39"/>
<text text-anchor="start" x="1246.72" y="-277.59" font-family="Helvetica,sans-Serif" font-size="32.00" fill="#29235c">DateDebut &#160;&#160;&#160;</text>
<text text-anchor="start" x="1507.47" y="-278.59" font-family="Helvetica,sans-Serif" font-style="italic" font-size="32.00" fill="#29235c">date</text>
<polygon fill="#e7e2dd" stroke="transparent" points="1235.72,-197.39 1235.72,-257.39 1580.72,-257.39 1580.72,-197.39 1235.72,-197.39"/>
<polygon fill="none" stroke="#29235c" points="1235.72,-197.39 1235.72,-257.39 1580.72,-257.39 1580.72,-197.39 1235.72,-197.39"/>
<text text-anchor="start" x="1246.72" y="-217.59" font-family="Helvetica,sans-Serif" font-size="32.00" fill="#29235c">DateFin &#160;&#160;&#160;</text>
<text text-anchor="start" x="1507.47" y="-218.59" font-family="Helvetica,sans-Serif" font-style="italic" font-size="32.00" fill="#29235c">date</text>
<polygon fill="#e7e2dd" stroke="transparent" points="1235.72,-137.39 1235.72,-197.39 1580.72,-197.39 1580.72,-137.39 1235.72,-137.39"/>
<polygon fill="none" stroke="#29235c" points="1235.72,-137.39 1235.72,-197.39 1580.72,-197.39 1580.72,-137.39 1235.72,-137.39"/>
<text text-anchor="start" x="1246.72" y="-157.59" font-family="Helvetica,sans-Serif" font-size="32.00" fill="#29235c">Actions &#160;&#160;&#160;</text>
<text text-anchor="start" x="1388.38" y="-158.59" font-family="Helvetica,sans-Serif" font-style="italic" font-size="32.00" fill="#29235c">varchar(255)</text>
<polygon fill="#e7e2dd" stroke="transparent" points="1235.72,-77.39 1235.72,-137.39 1580.72,-137.39 1580.72,-77.39 1235.72,-77.39"/>
<polygon fill="none" stroke="#29235c" points="1235.72,-77.39 1235.72,-137.39 1580.72,-137.39 1580.72,-77.39 1235.72,-77.39"/>
<text text-anchor="start" x="1246.72" y="-97.59" font-family="Helvetica,sans-Serif" font-size="32.00" fill="#29235c">TechnicienID &#160;&#160;&#160;</text>
<text text-anchor="start" x="1535.94" y="-98.59" font-family="Helvetica,sans-Serif" font-style="italic" font-size="32.00" fill="#29235c">int</text>
<polygon fill="none" stroke="#29235c" stroke-width="2" points="1234.22,-76.39 1234.22,-438.39 1581.22,-438.39 1581.22,-76.39 1234.22,-76.39"/>
</g>
<!-- Maintenances&#45;&gt;Techniciens -->
<!-- Maintenances&#45;&gt;Techniciens -->
<g id="edge2" class="edge">
<title>Maintenances:e&#45;&gt;Techniciens:w</title>
<path fill="none" stroke="#29235c" stroke-width="3" d="M1581.72,-107.39C1710.71,-107.39 1630.51,-334.9 1748.46,-346.9"/>
<polygon fill="#29235c" stroke="#29235c" stroke-width="3" points="1748.33,-350.39 1758.49,-347.39 1748.67,-343.4 1748.33,-350.39"/>
<text text-anchor="middle" x="1767.38" y="-347.39" font-family="Helvetica,sans-Serif" font-size="32.00" fill="#29235c">1</text>
<text text-anchor="middle" x="1587.95" y="-78.59" font-family="Helvetica,sans-Serif" font-size="32.00" fill="#29235c">*</text>
</g>
<!-- Machines -->
<g id="Machines" class="node">
<title>Machines</title>
<ellipse fill="none" stroke="black" stroke-width="0" cx="829.37" cy="-571.39" rx="295.64" ry="342.48"/>
<polygon fill="#1d71b8" stroke="transparent" points="622.37,-751.39 622.37,-811.39 1036.37,-811.39 1036.37,-751.39 622.37,-751.39"/>
<polygon fill="none" stroke="#29235c" points="622.37,-751.39 622.37,-811.39 1036.37,-811.39 1036.37,-751.39 622.37,-751.39"/>
<text text-anchor="start" x="698.67" y="-772.59" font-family="Helvetica,sans-Serif" font-weight="bold" font-size="32.00" fill="#ffffff"> &#160;&#160;&#160;&#160;&#160;&#160;Machines &#160;&#160;&#160;&#160;&#160;&#160;</text>
<polygon fill="#e7e2dd" stroke="transparent" points="622.37,-691.39 622.37,-751.39 1036.37,-751.39 1036.37,-691.39 622.37,-691.39"/>
<polygon fill="none" stroke="#29235c" points="622.37,-691.39 622.37,-751.39 1036.37,-751.39 1036.37,-691.39 622.37,-691.39"/>
<text text-anchor="start" x="633.37" y="-712.59" font-family="Helvetica,sans-Serif" font-weight="bold" font-size="32.00" fill="#29235c">ID</text>
<text text-anchor="start" x="665.37" y="-712.59" font-family="Helvetica,sans-Serif" font-size="32.00" fill="#29235c"> &#160;&#160;&#160;</text>
<text text-anchor="start" x="991.59" y="-712.59" font-family="Helvetica,sans-Serif" font-style="italic" font-size="32.00" fill="#29235c">int</text>
<polygon fill="#e7e2dd" stroke="transparent" points="622.37,-631.39 622.37,-691.39 1036.37,-691.39 1036.37,-631.39 622.37,-631.39"/>
<polygon fill="none" stroke="#29235c" points="622.37,-631.39 622.37,-691.39 1036.37,-691.39 1036.37,-631.39 622.37,-631.39"/>
<text text-anchor="start" x="633.37" y="-651.59" font-family="Helvetica,sans-Serif" font-size="32.00" fill="#29235c">DateAchat &#160;&#160;&#160;</text>
<text text-anchor="start" x="963.11" y="-652.59" font-family="Helvetica,sans-Serif" font-style="italic" font-size="32.00" fill="#29235c">date</text>
<polygon fill="#e7e2dd" stroke="transparent" points="622.37,-571.39 622.37,-631.39 1036.37,-631.39 1036.37,-571.39 622.37,-571.39"/>
<polygon fill="none" stroke="#29235c" points="622.37,-571.39 622.37,-631.39 1036.37,-631.39 1036.37,-571.39 622.37,-571.39"/>
<text text-anchor="start" x="633.37" y="-591.59" font-family="Helvetica,sans-Serif" font-size="32.00" fill="#29235c">Marque &#160;&#160;&#160;</text>
<text text-anchor="start" x="844.03" y="-592.59" font-family="Helvetica,sans-Serif" font-style="italic" font-size="32.00" fill="#29235c">varchar(255)</text>
<polygon fill="#e7e2dd" stroke="transparent" points="622.37,-511.39 622.37,-571.39 1036.37,-571.39 1036.37,-511.39 622.37,-511.39"/>
<polygon fill="none" stroke="#29235c" points="622.37,-511.39 622.37,-571.39 1036.37,-571.39 1036.37,-511.39 622.37,-511.39"/>
<text text-anchor="start" x="633.09" y="-531.59" font-family="Helvetica,sans-Serif" font-size="32.00" fill="#29235c">TailleDisque &#160;&#160;&#160;</text>
<text text-anchor="start" x="844.2" y="-532.59" font-family="Helvetica,sans-Serif" font-style="italic" font-size="32.00" fill="#29235c">varchar(255)</text>
<polygon fill="#e7e2dd" stroke="transparent" points="622.37,-451.39 622.37,-511.39 1036.37,-511.39 1036.37,-451.39 622.37,-451.39"/>
<polygon fill="none" stroke="#29235c" points="622.37,-451.39 622.37,-511.39 1036.37,-511.39 1036.37,-451.39 622.37,-451.39"/>
<text text-anchor="start" x="633.37" y="-471.59" font-family="Helvetica,sans-Serif" font-size="32.00" fill="#29235c">RAM &#160;&#160;&#160;</text>
<text text-anchor="start" x="844.03" y="-472.59" font-family="Helvetica,sans-Serif" font-style="italic" font-size="32.00" fill="#29235c">varchar(255)</text>
<polygon fill="#e7e2dd" stroke="transparent" points="622.37,-391.39 622.37,-451.39 1036.37,-451.39 1036.37,-391.39 622.37,-391.39"/>
<polygon fill="none" stroke="#29235c" points="622.37,-391.39 622.37,-451.39 1036.37,-451.39 1036.37,-391.39 622.37,-391.39"/>
<text text-anchor="start" x="633.37" y="-411.59" font-family="Helvetica,sans-Serif" font-size="32.00" fill="#29235c">UtilisateurID &#160;&#160;&#160;</text>
<text text-anchor="start" x="991.59" y="-412.59" font-family="Helvetica,sans-Serif" font-style="italic" font-size="32.00" fill="#29235c">int</text>
<polygon fill="#e7e2dd" stroke="transparent" points="622.37,-331.39 622.37,-391.39 1036.37,-391.39 1036.37,-331.39 622.37,-331.39"/>
<polygon fill="none" stroke="#29235c" points="622.37,-331.39 622.37,-391.39 1036.37,-391.39 1036.37,-331.39 622.37,-331.39"/>
<text text-anchor="start" x="633.37" y="-351.59" font-family="Helvetica,sans-Serif" font-size="32.00" fill="#29235c">MaintenanceID &#160;&#160;&#160;</text>
<text text-anchor="start" x="991.59" y="-352.59" font-family="Helvetica,sans-Serif" font-style="italic" font-size="32.00" fill="#29235c">int</text>
<polygon fill="none" stroke="#29235c" stroke-width="2" points="621.37,-330.39 621.37,-812.39 1037.37,-812.39 1037.37,-330.39 621.37,-330.39"/>
</g>
<!-- Machines&#45;&gt;Utilisateurs -->
<!-- Machines&#45;&gt;Utilisateurs -->
<g id="edge4" class="edge">
<title>Machines:e&#45;&gt;Utilisateurs:w</title>
<path fill="none" stroke="#29235c" stroke-width="3" d="M1037.37,-421.39C1203.37,-421.39 1089.16,-722.64 1243.66,-735"/>
<polygon fill="#29235c" stroke="#29235c" stroke-width="3" points="1243.6,-738.5 1253.72,-735.39 1243.87,-731.5 1243.6,-738.5"/>
<text text-anchor="middle" x="1244.83" y="-744.99" font-family="Helvetica,sans-Serif" font-size="32.00" fill="#29235c">1</text>
<text text-anchor="middle" x="1031.15" y="-392.59" font-family="Helvetica,sans-Serif" font-size="32.00" fill="#29235c">*</text>
</g>
<!-- Machines&#45;&gt;Maintenances -->
<!-- Machines&#45;&gt;Maintenances -->
<g id="edge6" class="edge">
<title>Machines:e&#45;&gt;Maintenances:w</title>
<path fill="none" stroke="#29235c" stroke-width="3" d="M1037.37,-361.39C1121.87,-361.39 1145.01,-348.46 1224.72,-347.45"/>
<polygon fill="#29235c" stroke="#29235c" stroke-width="3" points="1224.75,-350.95 1234.72,-347.39 1224.7,-343.95 1224.75,-350.95"/>
<text text-anchor="middle" x="1243.62" y="-347.39" font-family="Helvetica,sans-Serif" font-size="32.00" fill="#29235c">1</text>
<text text-anchor="middle" x="1031.15" y="-332.59" font-family="Helvetica,sans-Serif" font-size="32.00" fill="#29235c">*</text>
</g>
<!-- Logiciels -->
<g id="Logiciels" class="node">
<title>Logiciels</title>
<ellipse fill="none" stroke="black" stroke-width="0" cx="248.9" cy="-691.39" rx="248.8" ry="172.57"/>
<polygon fill="#1d71b8" stroke="transparent" points="74.9,-751.39 74.9,-811.39 422.9,-811.39 422.9,-751.39 74.9,-751.39"/>
<polygon fill="none" stroke="#29235c" points="74.9,-751.39 74.9,-811.39 422.9,-811.39 422.9,-751.39 74.9,-751.39"/>
<text text-anchor="start" x="124.42" y="-772.59" font-family="Helvetica,sans-Serif" font-weight="bold" font-size="32.00" fill="#ffffff"> &#160;&#160;&#160;&#160;&#160;&#160;Logiciels &#160;&#160;&#160;&#160;&#160;&#160;</text>
<polygon fill="#e7e2dd" stroke="transparent" points="74.9,-691.39 74.9,-751.39 422.9,-751.39 422.9,-691.39 74.9,-691.39"/>
<polygon fill="none" stroke="#29235c" points="74.9,-691.39 74.9,-751.39 422.9,-751.39 422.9,-691.39 74.9,-691.39"/>
<text text-anchor="start" x="85.9" y="-711.59" font-family="Helvetica,sans-Serif" font-size="32.00" fill="#29235c">Version &#160;&#160;&#160;</text>
<text text-anchor="start" x="230.73" y="-712.59" font-family="Helvetica,sans-Serif" font-style="italic" font-size="32.00" fill="#29235c">varchar(255)</text>
<polygon fill="#e7e2dd" stroke="transparent" points="74.9,-631.39 74.9,-691.39 422.9,-691.39 422.9,-631.39 74.9,-631.39"/>
<polygon fill="none" stroke="#29235c" points="74.9,-631.39 74.9,-691.39 422.9,-691.39 422.9,-631.39 74.9,-631.39"/>
<text text-anchor="start" x="85.49" y="-651.59" font-family="Helvetica,sans-Serif" font-size="32.00" fill="#29235c">Licence &#160;&#160;&#160;</text>
<text text-anchor="start" x="230.73" y="-652.59" font-family="Helvetica,sans-Serif" font-style="italic" font-size="32.00" fill="#29235c">varchar(255)</text>
<polygon fill="#e7e2dd" stroke="transparent" points="74.9,-571.39 74.9,-631.39 422.9,-631.39 422.9,-571.39 74.9,-571.39"/>
<polygon fill="none" stroke="#29235c" points="74.9,-571.39 74.9,-631.39 422.9,-631.39 422.9,-571.39 74.9,-571.39"/>
<text text-anchor="start" x="85.9" y="-591.59" font-family="Helvetica,sans-Serif" font-size="32.00" fill="#29235c">MachineID &#160;&#160;&#160;</text>
<text text-anchor="start" x="378.12" y="-592.59" font-family="Helvetica,sans-Serif" font-style="italic" font-size="32.00" fill="#29235c">int</text>
<polygon fill="none" stroke="#29235c" stroke-width="2" points="73.9,-570.39 73.9,-812.39 423.9,-812.39 423.9,-570.39 73.9,-570.39"/>
</g>
<!-- Logiciels&#45;&gt;Machines -->
<!-- Logiciels&#45;&gt;Machines -->
<g id="edge8" class="edge">
<title>Logiciels:e&#45;&gt;Machines:w</title>
<path fill="none" stroke="#29235c" stroke-width="3" d="M423.9,-601.39C523.09,-601.39 519.09,-713.32 611.22,-720.98"/>
<polygon fill="#29235c" stroke="#29235c" stroke-width="3" points="611.24,-724.48 621.37,-721.39 611.52,-717.49 611.24,-724.48"/>
<text text-anchor="middle" x="612.48" y="-730.99" font-family="Helvetica,sans-Serif" font-size="32.00" fill="#29235c">1</text>
<text text-anchor="middle" x="430.12" y="-572.59" font-family="Helvetica,sans-Serif" font-size="32.00" fill="#29235c">*</text>
</g>
</g>
</svg>
