<?xml version="1.0" encoding="UTF-8" standalone="no"?>
<!DOCTYPE svg PUBLIC "-//W3C//DTD SVG 1.1//EN"
 "http://www.w3.org/Graphics/SVG/1.1/DTD/svg11.dtd">
<!-- Generated by graphviz version 2.47.0 (20210316.0004)
 -->
<!-- Title: dbml Pages: 1 -->
<svg width="2178pt" height="1164pt"
 viewBox="0.00 0.00 2177.92 1163.64" xmlns="http://www.w3.org/2000/svg" xmlns:xlink="http://www.w3.org/1999/xlink">
<g id="graph0" class="graph" transform="scale(1 1) rotate(0) translate(4 1159.64)">
<title>dbml</title>
<!-- Techniciens -->
<g id="Techniciens" class="node">
<title>Techniciens</title>
<ellipse fill="none" stroke="black" stroke-width="0" cx="1942.94" cy="-625.11" rx="226.96" ry="130.22"/>
<polygon fill="#1d71b8" stroke="transparent" points="1784.94,-655.11 1784.94,-715.11 2101.94,-715.11 2101.94,-655.11 1784.94,-655.11"/>
<polygon fill="none" stroke="#29235c" points="1784.94,-655.11 1784.94,-715.11 2101.94,-715.11 2101.94,-655.11 1784.94,-655.11"/>
<text text-anchor="start" x="1795.85" y="-676.31" font-family="Helvetica,sans-Serif" font-weight="bold" font-size="32.00" fill="#ffffff"> &#160;&#160;&#160;&#160;&#160;&#160;Techniciens &#160;&#160;&#160;&#160;&#160;&#160;</text>
<polygon fill="#e7e2dd" stroke="transparent" points="1784.94,-595.11 1784.94,-655.11 2101.94,-655.11 2101.94,-595.11 1784.94,-595.11"/>
<polygon fill="none" stroke="#29235c" points="1784.94,-595.11 1784.94,-655.11 2101.94,-655.11 2101.94,-595.11 1784.94,-595.11"/>
<text text-anchor="start" x="1795.94" y="-616.31" font-family="Helvetica,sans-Serif" font-weight="bold" font-size="32.00" fill="#29235c">ID</text>
<text text-anchor="start" x="1827.94" y="-616.31" font-family="Helvetica,sans-Serif" font-size="32.00" fill="#29235c"> &#160;&#160;&#160;</text>
<text text-anchor="start" x="2057.16" y="-616.31" font-family="Helvetica,sans-Serif" font-style="italic" font-size="32.00" fill="#29235c">int</text>
<polygon fill="#e7e2dd" stroke="transparent" points="1784.94,-535.11 1784.94,-595.11 2101.94,-595.11 2101.94,-535.11 1784.94,-535.11"/>
<polygon fill="none" stroke="#29235c" points="1784.94,-535.11 1784.94,-595.11 2101.94,-595.11 2101.94,-535.11 1784.94,-535.11"/>
<text text-anchor="start" x="1795.94" y="-555.31" font-family="Helvetica,sans-Serif" font-size="32.00" fill="#29235c">Nom &#160;&#160;&#160;</text>
<text text-anchor="start" x="1909.6" y="-556.31" font-family="Helvetica,sans-Serif" font-style="italic" font-size="32.00" fill="#29235c">varchar(255)</text>
<polygon fill="none" stroke="#29235c" stroke-width="2" points="1783.44,-534.11 1783.44,-716.11 2102.44,-716.11 2102.44,-534.11 1783.44,-534.11"/>
</g>
<!-- Utilisateurs -->
<g id="Utilisateurs" class="node">
<title>Utilisateurs</title>
<ellipse fill="none" stroke="black" stroke-width="0" cx="1420.45" cy="-983.11" rx="219.41" ry="172.57"/>
<polygon fill="#1d71b8" stroke="transparent" points="1267.45,-1043.11 1267.45,-1103.11 1573.45,-1103.11 1573.45,-1043.11 1267.45,-1043.11"/>
<polygon fill="none" stroke="#29235c" points="1267.45,-1043.11 1267.45,-1103.11 1573.45,-1103.11 1573.45,-1043.11 1267.45,-1043.11"/>
<text text-anchor="start" x="1279.1" y="-1064.31" font-family="Helvetica,sans-Serif" font-weight="bold" font-size="32.00" fill="#ffffff"> &#160;&#160;&#160;&#160;&#160;&#160;Utilisateurs &#160;&#160;&#160;&#160;&#160;&#160;</text>
<polygon fill="#e7e2dd" stroke="transparent" points="1267.45,-983.11 1267.45,-1043.11 1573.45,-1043.11 1573.45,-983.11 1267.45,-983.11"/>
<polygon fill="none" stroke="#29235c" points="1267.45,-983.11 1267.45,-1043.11 1573.45,-1043.11 1573.45,-983.11 1267.45,-983.11"/>
<text text-anchor="start" x="1278.45" y="-1004.31" font-family="Helvetica,sans-Serif" font-weight="bold" font-size="32.00" fill="#29235c">ID</text>
<text text-anchor="start" x="1310.45" y="-1004.31" font-family="Helvetica,sans-Serif" font-size="32.00" fill="#29235c"> &#160;&#160;&#160;</text>
<text text-anchor="start" x="1528.67" y="-1004.31" font-family="Helvetica,sans-Serif" font-style="italic" font-size="32.00" fill="#29235c">int</text>
<polygon fill="#e7e2dd" stroke="transparent" points="1267.45,-923.11 1267.45,-983.11 1573.45,-983.11 1573.45,-923.11 1267.45,-923.11"/>
<polygon fill="none" stroke="#29235c" points="1267.45,-923.11 1267.45,-983.11 1573.45,-983.11 1573.45,-923.11 1267.45,-923.11"/>
<text text-anchor="start" x="1278.4" y="-943.31" font-family="Helvetica,sans-Serif" font-size="32.00" fill="#29235c">Nom &#160;&#160;&#160;</text>
<text text-anchor="start" x="1381.28" y="-944.31" font-family="Helvetica,sans-Serif" font-style="italic" font-size="32.00" fill="#29235c">varchar(255)</text>
<polygon fill="#e7e2dd" stroke="transparent" points="1267.45,-863.11 1267.45,-923.11 1573.45,-923.11 1573.45,-863.11 1267.45,-863.11"/>
<polygon fill="none" stroke="#29235c" points="1267.45,-863.11 1267.45,-923.11 1573.45,-923.11 1573.45,-863.11 1267.45,-863.11"/>
<text text-anchor="start" x="1278.4" y="-883.31" font-family="Helvetica,sans-Serif" font-size="32.00" fill="#29235c">Droit &#160;&#160;&#160;</text>
<text text-anchor="start" x="1381.28" y="-884.31" font-family="Helvetica,sans-Serif" font-style="italic" font-size="32.00" fill="#29235c">varchar(255)</text>
<polygon fill="none" stroke="#29235c" stroke-width="2" points="1266.45,-862.11 1266.45,-1104.11 1574.45,-1104.11 1574.45,-862.11 1266.45,-862.11"/>
</g>
<!-- Maintenances -->
<g id="Maintenances" class="node">
<title>Maintenances</title>
<ellipse fill="none" stroke="black" stroke-width="0" cx="1420.45" cy="-535.11" rx="246.56" ry="257.27"/>
<polygon fill="#1d71b8" stroke="transparent" points="1248.45,-655.11 1248.45,-715.11 1593.45,-715.11 1593.45,-655.11 1248.45,-655.11"/>
<polygon fill="none" stroke="#29235c" points="1248.45,-655.11 1248.45,-715.11 1593.45,-715.11 1593.45,-655.11 1248.45,-655.11"/>
<text text-anchor="start" x="1259.12" y="-676.31" font-family="Helvetica,sans-Serif" font-weight="bold" font-size="32.00" fill="#ffffff"> &#160;&#160;&#160;&#160;&#160;&#160;Maintenances &#160;&#160;&#160;&#160;&#160;&#160;</text>
<polygon fill="#e7e2dd" stroke="transparent" points="1248.45,-595.11 1248.45,-655.11 1593.45,-655.11 1593.45,-595.11 1248.45,-595.11"/>
<polygon fill="none" stroke="#29235c" points="1248.45,-595.11 1248.45,-655.11 1593.45,-655.11 1593.45,-595.11 1248.45,-595.11"/>
<text text-anchor="start" x="1259.45" y="-616.31" font-family="Helvetica,sans-Serif" font-weight="bold" font-size="32.00" fill="#29235c">ID</text>
<text text-anchor="start" x="1291.45" y="-616.31" font-family="Helvetica,sans-Serif" font-size="32.00" fill="#29235c"> &#160;&#160;&#160;</text>
<text text-anchor="start" x="1548.67" y="-616.31" font-family="Helvetica,sans-Serif" font-style="italic" font-size="32.00" fill="#29235c">int</text>
<polygon fill="#e7e2dd" stroke="transparent" points="1248.45,-535.11 1248.45,-595.11 1593.45,-595.11 1593.45,-535.11 1248.45,-535.11"/>
<polygon fill="none" stroke="#29235c" points="1248.45,-535.11 1248.45,-595.11 1593.45,-595.11 1593.45,-535.11 1248.45,-535.11"/>
<text text-anchor="start" x="1259.45" y="-555.31" font-family="Helvetica,sans-Serif" font-size="32.00" fill="#29235c">DateDebut &#160;&#160;&#160;</text>
<text text-anchor="start" x="1520.19" y="-556.31" font-family="Helvetica,sans-Serif" font-style="italic" font-size="32.00" fill="#29235c">date</text>
<polygon fill="#e7e2dd" stroke="transparent" points="1248.45,-475.11 1248.45,-535.11 1593.45,-535.11 1593.45,-475.11 1248.45,-475.11"/>
<polygon fill="none" stroke="#29235c" points="1248.45,-475.11 1248.45,-535.11 1593.45,-535.11 1593.45,-475.11 1248.45,-475.11"/>
<text text-anchor="start" x="1259.45" y="-495.31" font-family="Helvetica,sans-Serif" font-size="32.00" fill="#29235c">DateFin &#160;&#160;&#160;</text>
<text text-anchor="start" x="1520.19" y="-496.31" font-family="Helvetica,sans-Serif" font-style="italic" font-size="32.00" fill="#29235c">date</text>
<polygon fill="#e7e2dd" stroke="transparent" points="1248.45,-415.11 1248.45,-475.11 1593.45,-475.11 1593.45,-415.11 1248.45,-415.11"/>
<polygon fill="none" stroke="#29235c" points="1248.45,-415.11 1248.45,-475.11 1593.45,-475.11 1593.45,-415.11 1248.45,-415.11"/>
<text text-anchor="start" x="1259.45" y="-435.31" font-family="Helvetica,sans-Serif" font-size="32.00" fill="#29235c">Actions &#160;&#160;&#160;</text>
<text text-anchor="start" x="1401.11" y="-436.31" font-family="Helvetica,sans-Serif" font-style="italic" font-size="32.00" fill="#29235c">varchar(255)</text>
<polygon fill="#e7e2dd" stroke="transparent" points="1248.45,-355.11 1248.45,-415.11 1593.45,-415.11 1593.45,-355.11 1248.45,-355.11"/>
<polygon fill="none" stroke="#29235c" points="1248.45,-355.11 1248.45,-415.11 1593.45,-415.11 1593.45,-355.11 1248.45,-355.11"/>
<text text-anchor="start" x="1259.45" y="-375.31" font-family="Helvetica,sans-Serif" font-size="32.00" fill="#29235c">TechnicienID &#160;&#160;&#160;</text>
<text text-anchor="start" x="1548.67" y="-376.31" font-family="Helvetica,sans-Serif" font-style="italic" font-size="32.00" fill="#29235c">int</text>
<polygon fill="none" stroke="#29235c" stroke-width="2" points="1246.95,-354.11 1246.95,-716.11 1593.95,-716.11 1593.95,-354.11 1246.95,-354.11"/>
</g>
<!-- Maintenances&#45;&gt;Techniciens -->
<!-- Maintenances&#45;&gt;Techniciens -->
<g id="edge2" class="edge">
<title>Maintenances:e&#45;&gt;Techniciens:w</title>
<path fill="none" stroke="#29235c" stroke-width="3" d="M1594.45,-385.11C1726.77,-385.11 1652.23,-612.62 1773.64,-624.62"/>
<polygon fill="#29235c" stroke="#29235c" stroke-width="3" points="1773.79,-628.13 1783.94,-625.11 1774.12,-621.13 1773.79,-628.13"/>
<text text-anchor="middle" x="1792.84" y="-634.71" font-family="Helvetica,sans-Serif" font-size="32.00" fill="#29235c">1</text>
<text text-anchor="middle" x="1588.23" y="-356.31" font-family="Helvetica,sans-Serif" font-size="32.00" fill="#29235c">*</text>
</g>
<!-- Machines -->
<g id="Machines" class="node">
<title>Machines</title>
<ellipse fill="none" stroke="black" stroke-width="0" cx="829.37" cy="-475.11" rx="295.64" ry="342.48"/>
<polygon fill="#1d71b8" stroke="transparent" points="622.37,-655.11 622.37,-715.11 1036.37,-715.11 1036.37,-655.11 622.37,-655.11"/>
<polygon fill="none" stroke="#29235c" points="622.37,-655.11 622.37,-715.11 1036.37,-715.11 1036.37,-655.11 622.37,-655.11"/>
<text text-anchor="start" x="698.67" y="-676.31" font-family="Helvetica,sans-Serif" font-weight="bold" font-size="32.00" fill="#ffffff"> &#160;&#160;&#160;&#160;&#160;&#160;Machines &#160;&#160;&#160;&#160;&#160;&#160;</text>
<polygon fill="#e7e2dd" stroke="transparent" points="622.37,-595.11 622.37,-655.11 1036.37,-655.11 1036.37,-595.11 622.37,-595.11"/>
<polygon fill="none" stroke="#29235c" points="622.37,-595.11 622.37,-655.11 1036.37,-655.11 1036.37,-595.11 622.37,-595.11"/>
<text text-anchor="start" x="633.37" y="-616.31" font-family="Helvetica,sans-Serif" font-weight="bold" font-size="32.00" fill="#29235c">ID</text>
<text text-anchor="start" x="665.37" y="-616.31" font-family="Helvetica,sans-Serif" font-size="32.00" fill="#29235c"> &#160;&#160;&#160;</text>
<text text-anchor="start" x="991.59" y="-616.31" font-family="Helvetica,sans-Serif" font-style="italic" font-size="32.00" fill="#29235c">int</text>
<polygon fill="#e7e2dd" stroke="transparent" points="622.37,-535.11 622.37,-595.11 1036.37,-595.11 1036.37,-535.11 622.37,-535.11"/>
<polygon fill="none" stroke="#29235c" points="622.37,-535.11 622.37,-595.11 1036.37,-595.11 1036.37,-535.11 622.37,-535.11"/>
<text text-anchor="start" x="633.37" y="-555.31" font-family="Helvetica,sans-Serif" font-size="32.00" fill="#29235c">DateAchat &#160;&#160;&#160;</text>
<text text-anchor="start" x="963.11" y="-556.31" font-family="Helvetica,sans-Serif" font-style="italic" font-size="32.00" fill="#29235c">date</text>
<polygon fill="#e7e2dd" stroke="transparent" points="622.37,-475.11 622.37,-535.11 1036.37,-535.11 1036.37,-475.11 622.37,-475.11"/>
<polygon fill="none" stroke="#29235c" points="622.37,-475.11 622.37,-535.11 1036.37,-535.11 1036.37,-475.11 622.37,-475.11"/>
<text text-anchor="start" x="633.09" y="-495.31" font-family="Helvetica,sans-Serif" font-size="32.00" fill="#29235c">TailleDisque &#160;&#160;&#160;</text>
<text text-anchor="start" x="844.2" y="-496.31" font-family="Helvetica,sans-Serif" font-style="italic" font-size="32.00" fill="#29235c">varchar(255)</text>
<polygon fill="#e7e2dd" stroke="transparent" points="622.37,-415.11 622.37,-475.11 1036.37,-475.11 1036.37,-415.11 622.37,-415.11"/>
<polygon fill="none" stroke="#29235c" points="622.37,-415.11 622.37,-475.11 1036.37,-475.11 1036.37,-415.11 622.37,-415.11"/>
<text text-anchor="start" x="633.37" y="-435.31" font-family="Helvetica,sans-Serif" font-size="32.00" fill="#29235c">RAM &#160;&#160;&#160;</text>
<text text-anchor="start" x="844.03" y="-436.31" font-family="Helvetica,sans-Serif" font-style="italic" font-size="32.00" fill="#29235c">varchar(255)</text>
<polygon fill="#e7e2dd" stroke="transparent" points="622.37,-355.11 622.37,-415.11 1036.37,-415.11 1036.37,-355.11 622.37,-355.11"/>
<polygon fill="none" stroke="#29235c" points="622.37,-355.11 622.37,-415.11 1036.37,-415.11 1036.37,-355.11 622.37,-355.11"/>
<text text-anchor="start" x="633.37" y="-375.31" font-family="Helvetica,sans-Serif" font-size="32.00" fill="#29235c">UtilisateurID &#160;&#160;&#160;</text>
<text text-anchor="start" x="991.59" y="-376.31" font-family="Helvetica,sans-Serif" font-style="italic" font-size="32.00" fill="#29235c">int</text>
<polygon fill="#e7e2dd" stroke="transparent" points="622.37,-295.11 622.37,-355.11 1036.37,-355.11 1036.37,-295.11 622.37,-295.11"/>
<polygon fill="none" stroke="#29235c" points="622.37,-295.11 622.37,-355.11 1036.37,-355.11 1036.37,-295.11 622.37,-295.11"/>
<text text-anchor="start" x="633.37" y="-315.31" font-family="Helvetica,sans-Serif" font-size="32.00" fill="#29235c">MaintenanceID &#160;&#160;&#160;</text>
<text text-anchor="start" x="991.59" y="-316.31" font-family="Helvetica,sans-Serif" font-style="italic" font-size="32.00" fill="#29235c">int</text>
<polygon fill="#e7e2dd" stroke="transparent" points="622.37,-235.11 622.37,-295.11 1036.37,-295.11 1036.37,-235.11 622.37,-235.11"/>
<polygon fill="none" stroke="#29235c" points="622.37,-235.11 622.37,-295.11 1036.37,-295.11 1036.37,-235.11 622.37,-235.11"/>
<text text-anchor="start" x="633.37" y="-255.31" font-family="Helvetica,sans-Serif" font-size="32.00" fill="#29235c">MarquesID &#160;&#160;&#160;</text>
<text text-anchor="start" x="991.59" y="-256.31" font-family="Helvetica,sans-Serif" font-style="italic" font-size="32.00" fill="#29235c">int</text>
<polygon fill="none" stroke="#29235c" stroke-width="2" points="621.37,-234.11 621.37,-716.11 1037.37,-716.11 1037.37,-234.11 621.37,-234.11"/>
</g>
<!-- Machines&#45;&gt;Utilisateurs -->
<!-- Machines&#45;&gt;Utilisateurs -->
<g id="edge4" class="edge">
<title>Machines:e&#45;&gt;Utilisateurs:w</title>
<path fill="none" stroke="#29235c" stroke-width="3" d="M1037.37,-385.11C1230.25,-385.11 1090.25,-621.66 1160.94,-801.11 1198.24,-895.78 1163.67,-1005.55 1256.44,-1012.74"/>
<polygon fill="#29235c" stroke="#29235c" stroke-width="3" points="1256.33,-1016.23 1266.45,-1013.11 1256.59,-1009.24 1256.33,-1016.23"/>
<text text-anchor="middle" x="1257.56" y="-1022.71" font-family="Helvetica,sans-Serif" font-size="32.00" fill="#29235c">1</text>
<text text-anchor="middle" x="1031.15" y="-356.31" font-family="Helvetica,sans-Serif" font-size="32.00" fill="#29235c">*</text>
</g>
<!-- Machines&#45;&gt;Maintenances -->
<!-- Machines&#45;&gt;Maintenances -->
<g id="edge6" class="edge">
<title>Machines:e&#45;&gt;Maintenances:w</title>
<path fill="none" stroke="#29235c" stroke-width="3" d="M1037.37,-325.11C1196.65,-325.11 1089.51,-612.36 1237.34,-624.7"/>
<polygon fill="#29235c" stroke="#29235c" stroke-width="3" points="1237.32,-628.2 1247.45,-625.11 1237.6,-621.21 1237.32,-628.2"/>
<text text-anchor="middle" x="1238.56" y="-634.71" font-family="Helvetica,sans-Serif" font-size="32.00" fill="#29235c">1</text>
<text text-anchor="middle" x="1031.15" y="-296.31" font-family="Helvetica,sans-Serif" font-size="32.00" fill="#29235c">*</text>
</g>
<!-- Marques -->
<g id="Marques" class="node">
<title>Marques</title>
<ellipse fill="none" stroke="black" stroke-width="0" cx="1420.45" cy="-130.11" rx="259.52" ry="130.22"/>
<polygon fill="#1d71b8" stroke="transparent" points="1239.45,-160.11 1239.45,-220.11 1602.45,-220.11 1602.45,-160.11 1239.45,-160.11"/>
<polygon fill="none" stroke="#29235c" points="1239.45,-160.11 1239.45,-220.11 1602.45,-220.11 1602.45,-160.11 1239.45,-160.11"/>
<text text-anchor="start" x="1296.47" y="-181.31" font-family="Helvetica,sans-Serif" font-weight="bold" font-size="32.00" fill="#ffffff"> &#160;&#160;&#160;&#160;&#160;&#160;Marques &#160;&#160;&#160;&#160;&#160;&#160;</text>
<polygon fill="#e7e2dd" stroke="transparent" points="1239.45,-100.11 1239.45,-160.11 1602.45,-160.11 1602.45,-100.11 1239.45,-100.11"/>
<polygon fill="none" stroke="#29235c" points="1239.45,-100.11 1239.45,-160.11 1602.45,-160.11 1602.45,-100.11 1239.45,-100.11"/>
<text text-anchor="start" x="1250.45" y="-121.31" font-family="Helvetica,sans-Serif" font-weight="bold" font-size="32.00" fill="#29235c">ID</text>
<text text-anchor="start" x="1282.45" y="-121.31" font-family="Helvetica,sans-Serif" font-size="32.00" fill="#29235c"> &#160;&#160;&#160;</text>
<text text-anchor="start" x="1557.67" y="-121.31" font-family="Helvetica,sans-Serif" font-style="italic" font-size="32.00" fill="#29235c">int</text>
<polygon fill="#e7e2dd" stroke="transparent" points="1239.45,-40.11 1239.45,-100.11 1602.45,-100.11 1602.45,-40.11 1239.45,-40.11"/>
<polygon fill="none" stroke="#29235c" points="1239.45,-40.11 1239.45,-100.11 1602.45,-100.11 1602.45,-40.11 1239.45,-40.11"/>
<text text-anchor="start" x="1250.44" y="-60.31" font-family="Helvetica,sans-Serif" font-size="32.00" fill="#29235c">Marques &#160;&#160;&#160;</text>
<text text-anchor="start" x="1410.28" y="-61.31" font-family="Helvetica,sans-Serif" font-style="italic" font-size="32.00" fill="#29235c">varchar(255)</text>
<polygon fill="none" stroke="#29235c" stroke-width="2" points="1237.95,-39.11 1237.95,-221.11 1602.95,-221.11 1602.95,-39.11 1237.95,-39.11"/>
</g>
<!-- Machines&#45;&gt;Marques -->
<!-- Machines&#45;&gt;Marques -->
<g id="edge8" class="edge">
<title>Machines:e&#45;&gt;Marques:w</title>
<path fill="none" stroke="#29235c" stroke-width="3" d="M1037.37,-265.11C1141.55,-265.11 1131.6,-138.67 1228.42,-130.52"/>
<polygon fill="#29235c" stroke="#29235c" stroke-width="3" points="1228.6,-134.01 1238.45,-130.11 1228.32,-127.02 1228.6,-134.01"/>
<text text-anchor="middle" x="1229.56" y="-101.31" font-family="Helvetica,sans-Serif" font-size="32.00" fill="#29235c">1</text>
<text text-anchor="middle" x="1031.15" y="-236.31" font-family="Helvetica,sans-Serif" font-size="32.00" fill="#29235c">*</text>
</g>
<!-- Logiciels -->
<g id="Logiciels" class="node">
<title>Logiciels</title>
<ellipse fill="none" stroke="black" stroke-width="0" cx="248.9" cy="-535.11" rx="248.8" ry="257.27"/>
<polygon fill="#1d71b8" stroke="transparent" points="74.9,-655.11 74.9,-715.11 422.9,-715.11 422.9,-655.11 74.9,-655.11"/>
<polygon fill="none" stroke="#29235c" points="74.9,-655.11 74.9,-715.11 422.9,-715.11 422.9,-655.11 74.9,-655.11"/>
<text text-anchor="start" x="124.42" y="-676.31" font-family="Helvetica,sans-Serif" font-weight="bold" font-size="32.00" fill="#ffffff"> &#160;&#160;&#160;&#160;&#160;&#160;Logiciels &#160;&#160;&#160;&#160;&#160;&#160;</text>
<polygon fill="#e7e2dd" stroke="transparent" points="74.9,-595.11 74.9,-655.11 422.9,-655.11 422.9,-595.11 74.9,-595.11"/>
<polygon fill="none" stroke="#29235c" points="74.9,-595.11 74.9,-655.11 422.9,-655.11 422.9,-595.11 74.9,-595.11"/>
<text text-anchor="start" x="85.9" y="-616.31" font-family="Helvetica,sans-Serif" font-weight="bold" font-size="32.00" fill="#29235c">ID</text>
<text text-anchor="start" x="117.9" y="-616.31" font-family="Helvetica,sans-Serif" font-size="32.00" fill="#29235c"> &#160;&#160;&#160;</text>
<text text-anchor="start" x="378.12" y="-616.31" font-family="Helvetica,sans-Serif" font-style="italic" font-size="32.00" fill="#29235c">int</text>
<polygon fill="#e7e2dd" stroke="transparent" points="74.9,-535.11 74.9,-595.11 422.9,-595.11 422.9,-535.11 74.9,-535.11"/>
<polygon fill="none" stroke="#29235c" points="74.9,-535.11 74.9,-595.11 422.9,-595.11 422.9,-535.11 74.9,-535.11"/>
<text text-anchor="start" x="85.9" y="-555.31" font-family="Helvetica,sans-Serif" font-size="32.00" fill="#29235c">Nom &#160;&#160;&#160;</text>
<text text-anchor="start" x="230.56" y="-556.31" font-family="Helvetica,sans-Serif" font-style="italic" font-size="32.00" fill="#29235c">varchar(255)</text>
<polygon fill="#e7e2dd" stroke="transparent" points="74.9,-475.11 74.9,-535.11 422.9,-535.11 422.9,-475.11 74.9,-475.11"/>
<polygon fill="none" stroke="#29235c" points="74.9,-475.11 74.9,-535.11 422.9,-535.11 422.9,-475.11 74.9,-475.11"/>
<text text-anchor="start" x="85.9" y="-495.31" font-family="Helvetica,sans-Serif" font-size="32.00" fill="#29235c">Version &#160;&#160;&#160;</text>
<text text-anchor="start" x="230.73" y="-496.31" font-family="Helvetica,sans-Serif" font-style="italic" font-size="32.00" fill="#29235c">varchar(255)</text>
<polygon fill="#e7e2dd" stroke="transparent" points="74.9,-415.11 74.9,-475.11 422.9,-475.11 422.9,-415.11 74.9,-415.11"/>
<polygon fill="none" stroke="#29235c" points="74.9,-415.11 74.9,-475.11 422.9,-475.11 422.9,-415.11 74.9,-415.11"/>
<text text-anchor="start" x="85.49" y="-435.31" font-family="Helvetica,sans-Serif" font-size="32.00" fill="#29235c">Licence &#160;&#160;&#160;</text>
<text text-anchor="start" x="230.73" y="-436.31" font-family="Helvetica,sans-Serif" font-style="italic" font-size="32.00" fill="#29235c">varchar(255)</text>
<polygon fill="#e7e2dd" stroke="transparent" points="74.9,-355.11 74.9,-415.11 422.9,-415.11 422.9,-355.11 74.9,-355.11"/>
<polygon fill="none" stroke="#29235c" points="74.9,-355.11 74.9,-415.11 422.9,-415.11 422.9,-355.11 74.9,-355.11"/>
<text text-anchor="start" x="85.9" y="-375.31" font-family="Helvetica,sans-Serif" font-size="32.00" fill="#29235c">MachineID &#160;&#160;&#160;</text>
<text text-anchor="start" x="378.12" y="-376.31" font-family="Helvetica,sans-Serif" font-style="italic" font-size="32.00" fill="#29235c">int</text>
<polygon fill="none" stroke="#29235c" stroke-width="2" points="73.9,-354.11 73.9,-716.11 423.9,-716.11 423.9,-354.11 73.9,-354.11"/>
</g>
<!-- Logiciels&#45;&gt;Machines -->
<!-- Logiciels&#45;&gt;Machines -->
<g id="edge10" class="edge">
<title>Logiciels:e&#45;&gt;Machines:w</title>
<path fill="none" stroke="#29235c" stroke-width="3" d="M423.9,-385.11C558.53,-385.11 487.1,-613.07 611.26,-624.65"/>
<polygon fill="#29235c" stroke="#29235c" stroke-width="3" points="611.23,-628.15 621.37,-625.11 611.54,-621.16 611.23,-628.15"/>
<text text-anchor="middle" x="612.48" y="-634.71" font-family="Helvetica,sans-Serif" font-size="32.00" fill="#29235c">1</text>
<text text-anchor="middle" x="417.68" y="-356.31" font-family="Helvetica,sans-Serif" font-size="32.00" fill="#29235c">*</text>
</g>
</g>
</svg>
