<?xml version="1.0" encoding="UTF-8" standalone="no"?>
<!DOCTYPE svg PUBLIC "-//W3C//DTD SVG 1.1//EN"
 "http://www.w3.org/Graphics/SVG/1.1/DTD/svg11.dtd">
<!-- Generated by graphviz version 2.47.0 (20210316.0004)
 -->
<!-- Title: dbml Pages: 1 -->
<svg width="1644pt" height="1611pt"
 viewBox="0.00 0.00 1644.12 1611.49" xmlns="http://www.w3.org/2000/svg" xmlns:xlink="http://www.w3.org/1999/xlink">
<g id="graph0" class="graph" transform="scale(1 1) rotate(0) translate(4 1607.49)">
<title>dbml</title>
<!-- Techniciens -->
<g id="Techniciens" class="node">
<title>Techniciens</title>
<ellipse fill="none" stroke="black" stroke-width="0" cx="1409.14" cy="-1072.96" rx="226.96" ry="130.22"/>
<polygon fill="#1d71b8" stroke="transparent" points="1251.14,-1102.96 1251.14,-1162.96 1568.14,-1162.96 1568.14,-1102.96 1251.14,-1102.96"/>
<polygon fill="none" stroke="#29235c" points="1251.14,-1102.96 1251.14,-1162.96 1568.14,-1162.96 1568.14,-1102.96 1251.14,-1102.96"/>
<text text-anchor="start" x="1262.04" y="-1124.16" font-family="Helvetica,sans-Serif" font-weight="bold" font-size="32.00" fill="#ffffff"> &#160;&#160;&#160;&#160;&#160;&#160;Techniciens &#160;&#160;&#160;&#160;&#160;&#160;</text>
<polygon fill="#e7e2dd" stroke="transparent" points="1251.14,-1042.96 1251.14,-1102.96 1568.14,-1102.96 1568.14,-1042.96 1251.14,-1042.96"/>
<polygon fill="none" stroke="#29235c" points="1251.14,-1042.96 1251.14,-1102.96 1568.14,-1102.96 1568.14,-1042.96 1251.14,-1042.96"/>
<text text-anchor="start" x="1262.14" y="-1064.16" font-family="Helvetica,sans-Serif" font-weight="bold" font-size="32.00" fill="#29235c">ID</text>
<text text-anchor="start" x="1294.13" y="-1064.16" font-family="Helvetica,sans-Serif" font-size="32.00" fill="#29235c"> &#160;&#160;&#160;</text>
<text text-anchor="start" x="1523.36" y="-1064.16" font-family="Helvetica,sans-Serif" font-style="italic" font-size="32.00" fill="#29235c">int</text>
<polygon fill="#e7e2dd" stroke="transparent" points="1251.14,-982.96 1251.14,-1042.96 1568.14,-1042.96 1568.14,-982.96 1251.14,-982.96"/>
<polygon fill="none" stroke="#29235c" points="1251.14,-982.96 1251.14,-1042.96 1568.14,-1042.96 1568.14,-982.96 1251.14,-982.96"/>
<text text-anchor="start" x="1262.14" y="-1003.16" font-family="Helvetica,sans-Serif" font-size="32.00" fill="#29235c">Nom &#160;&#160;&#160;</text>
<text text-anchor="start" x="1375.79" y="-1004.16" font-family="Helvetica,sans-Serif" font-style="italic" font-size="32.00" fill="#29235c">varchar(255)</text>
<polygon fill="none" stroke="#29235c" stroke-width="2" points="1249.64,-981.96 1249.64,-1163.96 1568.64,-1163.96 1568.64,-981.96 1249.64,-981.96"/>
</g>
<!-- Utilisateurs -->
<g id="Utilisateurs" class="node">
<title>Utilisateurs</title>
<ellipse fill="none" stroke="black" stroke-width="0" cx="886.65" cy="-1430.96" rx="219.41" ry="172.57"/>
<polygon fill="#1d71b8" stroke="transparent" points="733.65,-1490.96 733.65,-1550.96 1039.65,-1550.96 1039.65,-1490.96 733.65,-1490.96"/>
<polygon fill="none" stroke="#29235c" points="733.65,-1490.96 733.65,-1550.96 1039.65,-1550.96 1039.65,-1490.96 733.65,-1490.96"/>
<text text-anchor="start" x="745.3" y="-1512.16" font-family="Helvetica,sans-Serif" font-weight="bold" font-size="32.00" fill="#ffffff"> &#160;&#160;&#160;&#160;&#160;&#160;Utilisateurs &#160;&#160;&#160;&#160;&#160;&#160;</text>
<polygon fill="#e7e2dd" stroke="transparent" points="733.65,-1430.96 733.65,-1490.96 1039.65,-1490.96 1039.65,-1430.96 733.65,-1430.96"/>
<polygon fill="none" stroke="#29235c" points="733.65,-1430.96 733.65,-1490.96 1039.65,-1490.96 1039.65,-1430.96 733.65,-1430.96"/>
<text text-anchor="start" x="744.65" y="-1452.16" font-family="Helvetica,sans-Serif" font-weight="bold" font-size="32.00" fill="#29235c">ID</text>
<text text-anchor="start" x="776.64" y="-1452.16" font-family="Helvetica,sans-Serif" font-size="32.00" fill="#29235c"> &#160;&#160;&#160;</text>
<text text-anchor="start" x="994.87" y="-1452.16" font-family="Helvetica,sans-Serif" font-style="italic" font-size="32.00" fill="#29235c">int</text>
<polygon fill="#e7e2dd" stroke="transparent" points="733.65,-1370.96 733.65,-1430.96 1039.65,-1430.96 1039.65,-1370.96 733.65,-1370.96"/>
<polygon fill="none" stroke="#29235c" points="733.65,-1370.96 733.65,-1430.96 1039.65,-1430.96 1039.65,-1370.96 733.65,-1370.96"/>
<text text-anchor="start" x="744.59" y="-1391.16" font-family="Helvetica,sans-Serif" font-size="32.00" fill="#29235c">Nom &#160;&#160;&#160;</text>
<text text-anchor="start" x="847.48" y="-1392.16" font-family="Helvetica,sans-Serif" font-style="italic" font-size="32.00" fill="#29235c">varchar(255)</text>
<polygon fill="#e7e2dd" stroke="transparent" points="733.65,-1310.96 733.65,-1370.96 1039.65,-1370.96 1039.65,-1310.96 733.65,-1310.96"/>
<polygon fill="none" stroke="#29235c" points="733.65,-1310.96 733.65,-1370.96 1039.65,-1370.96 1039.65,-1310.96 733.65,-1310.96"/>
<text text-anchor="start" x="744.6" y="-1331.16" font-family="Helvetica,sans-Serif" font-size="32.00" fill="#29235c">Droit &#160;&#160;&#160;</text>
<text text-anchor="start" x="847.48" y="-1332.16" font-family="Helvetica,sans-Serif" font-style="italic" font-size="32.00" fill="#29235c">varchar(255)</text>
<polygon fill="none" stroke="#29235c" stroke-width="2" points="732.65,-1309.96 732.65,-1551.96 1040.65,-1551.96 1040.65,-1309.96 732.65,-1309.96"/>
</g>
<!-- Maintenances -->
<g id="Maintenances" class="node">
<title>Maintenances</title>
<ellipse fill="none" stroke="black" stroke-width="0" cx="886.65" cy="-982.96" rx="246.56" ry="257.27"/>
<polygon fill="#1d71b8" stroke="transparent" points="714.65,-1102.96 714.65,-1162.96 1059.65,-1162.96 1059.65,-1102.96 714.65,-1102.96"/>
<polygon fill="none" stroke="#29235c" points="714.65,-1102.96 714.65,-1162.96 1059.65,-1162.96 1059.65,-1102.96 714.65,-1102.96"/>
<text text-anchor="start" x="725.32" y="-1124.16" font-family="Helvetica,sans-Serif" font-weight="bold" font-size="32.00" fill="#ffffff"> &#160;&#160;&#160;&#160;&#160;&#160;Maintenances &#160;&#160;&#160;&#160;&#160;&#160;</text>
<polygon fill="#e7e2dd" stroke="transparent" points="714.65,-1042.96 714.65,-1102.96 1059.65,-1102.96 1059.65,-1042.96 714.65,-1042.96"/>
<polygon fill="none" stroke="#29235c" points="714.65,-1042.96 714.65,-1102.96 1059.65,-1102.96 1059.65,-1042.96 714.65,-1042.96"/>
<text text-anchor="start" x="725.65" y="-1064.16" font-family="Helvetica,sans-Serif" font-weight="bold" font-size="32.00" fill="#29235c">ID</text>
<text text-anchor="start" x="757.64" y="-1064.16" font-family="Helvetica,sans-Serif" font-size="32.00" fill="#29235c"> &#160;&#160;&#160;</text>
<text text-anchor="start" x="1014.87" y="-1064.16" font-family="Helvetica,sans-Serif" font-style="italic" font-size="32.00" fill="#29235c">int</text>
<polygon fill="#e7e2dd" stroke="transparent" points="714.65,-982.96 714.65,-1042.96 1059.65,-1042.96 1059.65,-982.96 714.65,-982.96"/>
<polygon fill="none" stroke="#29235c" points="714.65,-982.96 714.65,-1042.96 1059.65,-1042.96 1059.65,-982.96 714.65,-982.96"/>
<text text-anchor="start" x="725.65" y="-1003.16" font-family="Helvetica,sans-Serif" font-size="32.00" fill="#29235c">DateDebut &#160;&#160;&#160;</text>
<text text-anchor="start" x="986.39" y="-1004.16" font-family="Helvetica,sans-Serif" font-style="italic" font-size="32.00" fill="#29235c">date</text>
<polygon fill="#e7e2dd" stroke="transparent" points="714.65,-922.96 714.65,-982.96 1059.65,-982.96 1059.65,-922.96 714.65,-922.96"/>
<polygon fill="none" stroke="#29235c" points="714.65,-922.96 714.65,-982.96 1059.65,-982.96 1059.65,-922.96 714.65,-922.96"/>
<text text-anchor="start" x="725.65" y="-943.16" font-family="Helvetica,sans-Serif" font-size="32.00" fill="#29235c">DateFin &#160;&#160;&#160;</text>
<text text-anchor="start" x="986.39" y="-944.16" font-family="Helvetica,sans-Serif" font-style="italic" font-size="32.00" fill="#29235c">date</text>
<polygon fill="#e7e2dd" stroke="transparent" points="714.65,-862.96 714.65,-922.96 1059.65,-922.96 1059.65,-862.96 714.65,-862.96"/>
<polygon fill="none" stroke="#29235c" points="714.65,-862.96 714.65,-922.96 1059.65,-922.96 1059.65,-862.96 714.65,-862.96"/>
<text text-anchor="start" x="725.65" y="-883.16" font-family="Helvetica,sans-Serif" font-size="32.00" fill="#29235c">Actions &#160;&#160;&#160;</text>
<text text-anchor="start" x="867.31" y="-884.16" font-family="Helvetica,sans-Serif" font-style="italic" font-size="32.00" fill="#29235c">varchar(255)</text>
<polygon fill="#e7e2dd" stroke="transparent" points="714.65,-802.96 714.65,-862.96 1059.65,-862.96 1059.65,-802.96 714.65,-802.96"/>
<polygon fill="none" stroke="#29235c" points="714.65,-802.96 714.65,-862.96 1059.65,-862.96 1059.65,-802.96 714.65,-802.96"/>
<text text-anchor="start" x="725.65" y="-823.16" font-family="Helvetica,sans-Serif" font-size="32.00" fill="#29235c">TechnicienID &#160;&#160;&#160;</text>
<text text-anchor="start" x="1014.87" y="-824.16" font-family="Helvetica,sans-Serif" font-style="italic" font-size="32.00" fill="#29235c">int</text>
<polygon fill="none" stroke="#29235c" stroke-width="2" points="713.15,-801.96 713.15,-1163.96 1060.15,-1163.96 1060.15,-801.96 713.15,-801.96"/>
</g>
<!-- Maintenances&#45;&gt;Techniciens -->
<!-- Maintenances&#45;&gt;Techniciens -->
<g id="edge2" class="edge">
<title>Maintenances:e&#45;&gt;Techniciens:w</title>
<path fill="none" stroke="#29235c" stroke-width="3" d="M1060.65,-832.96C1192.97,-832.96 1118.42,-1060.47 1239.84,-1072.47"/>
<polygon fill="#29235c" stroke="#29235c" stroke-width="3" points="1239.98,-1075.98 1250.14,-1072.96 1240.32,-1068.99 1239.98,-1075.98"/>
<text text-anchor="middle" x="1259.03" y="-1082.56" font-family="Helvetica,sans-Serif" font-size="32.00" fill="#29235c">1</text>
<text text-anchor="middle" x="1054.43" y="-842.56" font-family="Helvetica,sans-Serif" font-size="32.00" fill="#29235c">*</text>
</g>
<!-- Machines -->
<g id="Machines" class="node">
<title>Machines</title>
<ellipse fill="none" stroke="black" stroke-width="0" cx="295.57" cy="-794.96" rx="295.64" ry="427.19"/>
<polygon fill="#1d71b8" stroke="transparent" points="88.57,-1034.96 88.57,-1094.96 502.57,-1094.96 502.57,-1034.96 88.57,-1034.96"/>
<polygon fill="none" stroke="#29235c" points="88.57,-1034.96 88.57,-1094.96 502.57,-1094.96 502.57,-1034.96 88.57,-1034.96"/>
<text text-anchor="start" x="164.87" y="-1056.16" font-family="Helvetica,sans-Serif" font-weight="bold" font-size="32.00" fill="#ffffff"> &#160;&#160;&#160;&#160;&#160;&#160;Machines &#160;&#160;&#160;&#160;&#160;&#160;</text>
<polygon fill="#e7e2dd" stroke="transparent" points="88.57,-974.96 88.57,-1034.96 502.57,-1034.96 502.57,-974.96 88.57,-974.96"/>
<polygon fill="none" stroke="#29235c" points="88.57,-974.96 88.57,-1034.96 502.57,-1034.96 502.57,-974.96 88.57,-974.96"/>
<text text-anchor="start" x="99.57" y="-996.16" font-family="Helvetica,sans-Serif" font-weight="bold" font-size="32.00" fill="#29235c">ID</text>
<text text-anchor="start" x="131.56" y="-996.16" font-family="Helvetica,sans-Serif" font-size="32.00" fill="#29235c"> &#160;&#160;&#160;</text>
<text text-anchor="start" x="457.79" y="-996.16" font-family="Helvetica,sans-Serif" font-style="italic" font-size="32.00" fill="#29235c">int</text>
<polygon fill="#e7e2dd" stroke="transparent" points="88.57,-914.96 88.57,-974.96 502.57,-974.96 502.57,-914.96 88.57,-914.96"/>
<polygon fill="none" stroke="#29235c" points="88.57,-914.96 88.57,-974.96 502.57,-974.96 502.57,-914.96 88.57,-914.96"/>
<text text-anchor="start" x="99.57" y="-935.16" font-family="Helvetica,sans-Serif" font-size="32.00" fill="#29235c">DateAchat &#160;&#160;&#160;</text>
<text text-anchor="start" x="429.31" y="-936.16" font-family="Helvetica,sans-Serif" font-style="italic" font-size="32.00" fill="#29235c">date</text>
<polygon fill="#e7e2dd" stroke="transparent" points="88.57,-854.96 88.57,-914.96 502.57,-914.96 502.57,-854.96 88.57,-854.96"/>
<polygon fill="none" stroke="#29235c" points="88.57,-854.96 88.57,-914.96 502.57,-914.96 502.57,-854.96 88.57,-854.96"/>
<text text-anchor="start" x="99.29" y="-875.16" font-family="Helvetica,sans-Serif" font-size="32.00" fill="#29235c">TailleDisque &#160;&#160;&#160;</text>
<text text-anchor="start" x="310.4" y="-876.16" font-family="Helvetica,sans-Serif" font-style="italic" font-size="32.00" fill="#29235c">varchar(255)</text>
<polygon fill="#e7e2dd" stroke="transparent" points="88.57,-794.96 88.57,-854.96 502.57,-854.96 502.57,-794.96 88.57,-794.96"/>
<polygon fill="none" stroke="#29235c" points="88.57,-794.96 88.57,-854.96 502.57,-854.96 502.57,-794.96 88.57,-794.96"/>
<text text-anchor="start" x="99.57" y="-815.16" font-family="Helvetica,sans-Serif" font-size="32.00" fill="#29235c">RAM &#160;&#160;&#160;</text>
<text text-anchor="start" x="310.23" y="-816.16" font-family="Helvetica,sans-Serif" font-style="italic" font-size="32.00" fill="#29235c">varchar(255)</text>
<polygon fill="#e7e2dd" stroke="transparent" points="88.57,-734.96 88.57,-794.96 502.57,-794.96 502.57,-734.96 88.57,-734.96"/>
<polygon fill="none" stroke="#29235c" points="88.57,-734.96 88.57,-794.96 502.57,-794.96 502.57,-734.96 88.57,-734.96"/>
<text text-anchor="start" x="99.57" y="-755.16" font-family="Helvetica,sans-Serif" font-size="32.00" fill="#29235c">UtilisateurID &#160;&#160;&#160;</text>
<text text-anchor="start" x="457.79" y="-756.16" font-family="Helvetica,sans-Serif" font-style="italic" font-size="32.00" fill="#29235c">int</text>
<polygon fill="#e7e2dd" stroke="transparent" points="88.57,-674.96 88.57,-734.96 502.57,-734.96 502.57,-674.96 88.57,-674.96"/>
<polygon fill="none" stroke="#29235c" points="88.57,-674.96 88.57,-734.96 502.57,-734.96 502.57,-674.96 88.57,-674.96"/>
<text text-anchor="start" x="99.57" y="-695.16" font-family="Helvetica,sans-Serif" font-size="32.00" fill="#29235c">MaintenanceID &#160;&#160;&#160;</text>
<text text-anchor="start" x="457.79" y="-696.16" font-family="Helvetica,sans-Serif" font-style="italic" font-size="32.00" fill="#29235c">int</text>
<polygon fill="#e7e2dd" stroke="transparent" points="88.57,-614.96 88.57,-674.96 502.57,-674.96 502.57,-614.96 88.57,-614.96"/>
<polygon fill="none" stroke="#29235c" points="88.57,-614.96 88.57,-674.96 502.57,-674.96 502.57,-614.96 88.57,-614.96"/>
<text text-anchor="start" x="99.57" y="-635.16" font-family="Helvetica,sans-Serif" font-size="32.00" fill="#29235c">MarquesID &#160;&#160;&#160;</text>
<text text-anchor="start" x="457.79" y="-636.16" font-family="Helvetica,sans-Serif" font-style="italic" font-size="32.00" fill="#29235c">int</text>
<polygon fill="#e7e2dd" stroke="transparent" points="88.57,-554.96 88.57,-614.96 502.57,-614.96 502.57,-554.96 88.57,-554.96"/>
<polygon fill="none" stroke="#29235c" points="88.57,-554.96 88.57,-614.96 502.57,-614.96 502.57,-554.96 88.57,-554.96"/>
<text text-anchor="start" x="99.57" y="-575.16" font-family="Helvetica,sans-Serif" font-size="32.00" fill="#29235c">LogicielsID &#160;&#160;&#160;</text>
<text text-anchor="start" x="457.79" y="-576.16" font-family="Helvetica,sans-Serif" font-style="italic" font-size="32.00" fill="#29235c">int</text>
<polygon fill="#e7e2dd" stroke="transparent" points="88.57,-494.96 88.57,-554.96 502.57,-554.96 502.57,-494.96 88.57,-494.96"/>
<polygon fill="none" stroke="#29235c" points="88.57,-494.96 88.57,-554.96 502.57,-554.96 502.57,-494.96 88.57,-494.96"/>
<text text-anchor="start" x="99.57" y="-515.16" font-family="Helvetica,sans-Serif" font-size="32.00" fill="#29235c">OS &#160;&#160;&#160;</text>
<text text-anchor="start" x="310.23" y="-516.16" font-family="Helvetica,sans-Serif" font-style="italic" font-size="32.00" fill="#29235c">varchar(255)</text>
<polygon fill="none" stroke="#29235c" stroke-width="2" points="87.57,-493.96 87.57,-1095.96 503.57,-1095.96 503.57,-493.96 87.57,-493.96"/>
</g>
<!-- Machines&#45;&gt;Utilisateurs -->
<!-- Machines&#45;&gt;Utilisateurs -->
<g id="edge4" class="edge">
<title>Machines:e&#45;&gt;Utilisateurs:w</title>
<path fill="none" stroke="#29235c" stroke-width="3" d="M503.57,-764.96C725.58,-764.96 549.79,-1040.86 627.14,-1248.96 662.59,-1344.34 629.74,-1453.45 722.63,-1460.59"/>
<polygon fill="#29235c" stroke="#29235c" stroke-width="3" points="722.53,-1464.09 732.65,-1460.96 722.79,-1457.09 722.53,-1464.09"/>
<text text-anchor="middle" x="723.76" y="-1470.56" font-family="Helvetica,sans-Serif" font-size="32.00" fill="#29235c">1</text>
<text text-anchor="middle" x="497.35" y="-774.56" font-family="Helvetica,sans-Serif" font-size="32.00" fill="#29235c">*</text>
</g>
<!-- Machines&#45;&gt;Maintenances -->
<!-- Machines&#45;&gt;Maintenances -->
<g id="edge6" class="edge">
<title>Machines:e&#45;&gt;Maintenances:w</title>
<path fill="none" stroke="#29235c" stroke-width="3" d="M503.57,-704.96C688.41,-704.96 531.38,-1059.43 703.53,-1072.59"/>
<polygon fill="#29235c" stroke="#29235c" stroke-width="3" points="703.53,-1076.09 713.65,-1072.96 703.79,-1069.09 703.53,-1076.09"/>
<text text-anchor="middle" x="704.76" y="-1082.56" font-family="Helvetica,sans-Serif" font-size="32.00" fill="#29235c">1</text>
<text text-anchor="middle" x="497.35" y="-714.56" font-family="Helvetica,sans-Serif" font-size="32.00" fill="#29235c">*</text>
</g>
<!-- Logiciels -->
<g id="Logiciels" class="node">
<title>Logiciels</title>
<ellipse fill="none" stroke="black" stroke-width="0" cx="886.65" cy="-214.96" rx="248.8" ry="214.92"/>
<polygon fill="#1d71b8" stroke="transparent" points="712.65,-304.96 712.65,-364.96 1060.65,-364.96 1060.65,-304.96 712.65,-304.96"/>
<polygon fill="none" stroke="#29235c" points="712.65,-304.96 712.65,-364.96 1060.65,-364.96 1060.65,-304.96 712.65,-304.96"/>
<text text-anchor="start" x="762.17" y="-326.16" font-family="Helvetica,sans-Serif" font-weight="bold" font-size="32.00" fill="#ffffff"> &#160;&#160;&#160;&#160;&#160;&#160;Logiciels &#160;&#160;&#160;&#160;&#160;&#160;</text>
<polygon fill="#e7e2dd" stroke="transparent" points="712.65,-244.96 712.65,-304.96 1060.65,-304.96 1060.65,-244.96 712.65,-244.96"/>
<polygon fill="none" stroke="#29235c" points="712.65,-244.96 712.65,-304.96 1060.65,-304.96 1060.65,-244.96 712.65,-244.96"/>
<text text-anchor="start" x="723.65" y="-266.16" font-family="Helvetica,sans-Serif" font-weight="bold" font-size="32.00" fill="#29235c">ID</text>
<text text-anchor="start" x="755.64" y="-266.16" font-family="Helvetica,sans-Serif" font-size="32.00" fill="#29235c"> &#160;&#160;&#160;</text>
<text text-anchor="start" x="1015.87" y="-266.16" font-family="Helvetica,sans-Serif" font-style="italic" font-size="32.00" fill="#29235c">int</text>
<polygon fill="#e7e2dd" stroke="transparent" points="712.65,-184.96 712.65,-244.96 1060.65,-244.96 1060.65,-184.96 712.65,-184.96"/>
<polygon fill="none" stroke="#29235c" points="712.65,-184.96 712.65,-244.96 1060.65,-244.96 1060.65,-184.96 712.65,-184.96"/>
<text text-anchor="start" x="723.65" y="-205.16" font-family="Helvetica,sans-Serif" font-size="32.00" fill="#29235c">Nom &#160;&#160;&#160;</text>
<text text-anchor="start" x="868.31" y="-206.16" font-family="Helvetica,sans-Serif" font-style="italic" font-size="32.00" fill="#29235c">varchar(255)</text>
<polygon fill="#e7e2dd" stroke="transparent" points="712.65,-124.96 712.65,-184.96 1060.65,-184.96 1060.65,-124.96 712.65,-124.96"/>
<polygon fill="none" stroke="#29235c" points="712.65,-124.96 712.65,-184.96 1060.65,-184.96 1060.65,-124.96 712.65,-124.96"/>
<text text-anchor="start" x="723.65" y="-145.16" font-family="Helvetica,sans-Serif" font-size="32.00" fill="#29235c">Version &#160;&#160;&#160;</text>
<text text-anchor="start" x="868.48" y="-146.16" font-family="Helvetica,sans-Serif" font-style="italic" font-size="32.00" fill="#29235c">varchar(255)</text>
<polygon fill="#e7e2dd" stroke="transparent" points="712.65,-64.96 712.65,-124.96 1060.65,-124.96 1060.65,-64.96 712.65,-64.96"/>
<polygon fill="none" stroke="#29235c" points="712.65,-64.96 712.65,-124.96 1060.65,-124.96 1060.65,-64.96 712.65,-64.96"/>
<text text-anchor="start" x="723.24" y="-85.16" font-family="Helvetica,sans-Serif" font-size="32.00" fill="#29235c">Licence &#160;&#160;&#160;</text>
<text text-anchor="start" x="868.48" y="-86.16" font-family="Helvetica,sans-Serif" font-style="italic" font-size="32.00" fill="#29235c">varchar(255)</text>
<polygon fill="none" stroke="#29235c" stroke-width="2" points="711.65,-63.96 711.65,-365.96 1061.65,-365.96 1061.65,-63.96 711.65,-63.96"/>
</g>
<!-- Machines&#45;&gt;Logiciels -->
<!-- Machines&#45;&gt;Logiciels -->
<g id="edge10" class="edge">
<title>Machines:e&#45;&gt;Logiciels:w</title>
<path fill="none" stroke="#29235c" stroke-width="3" d="M503.57,-584.96C665.94,-584.96 550.9,-288.14 701.35,-275.38"/>
<polygon fill="#29235c" stroke="#29235c" stroke-width="3" points="701.8,-278.87 711.65,-274.96 701.51,-271.87 701.8,-278.87"/>
<text text-anchor="middle" x="702.76" y="-246.16" font-family="Helvetica,sans-Serif" font-size="32.00" fill="#29235c">1</text>
<text text-anchor="middle" x="509.79" y="-584.96" font-family="Helvetica,sans-Serif" font-size="32.00" fill="#29235c">*</text>
</g>
<!-- Marques -->
<g id="Marques" class="node">
<title>Marques</title>
<ellipse fill="none" stroke="black" stroke-width="0" cx="886.65" cy="-577.96" rx="259.52" ry="130.22"/>
<polygon fill="#1d71b8" stroke="transparent" points="705.65,-607.96 705.65,-667.96 1068.65,-667.96 1068.65,-607.96 705.65,-607.96"/>
<polygon fill="none" stroke="#29235c" points="705.65,-607.96 705.65,-667.96 1068.65,-667.96 1068.65,-607.96 705.65,-607.96"/>
<text text-anchor="start" x="762.67" y="-629.16" font-family="Helvetica,sans-Serif" font-weight="bold" font-size="32.00" fill="#ffffff"> &#160;&#160;&#160;&#160;&#160;&#160;Marques &#160;&#160;&#160;&#160;&#160;&#160;</text>
<polygon fill="#e7e2dd" stroke="transparent" points="705.65,-547.96 705.65,-607.96 1068.65,-607.96 1068.65,-547.96 705.65,-547.96"/>
<polygon fill="none" stroke="#29235c" points="705.65,-547.96 705.65,-607.96 1068.65,-607.96 1068.65,-547.96 705.65,-547.96"/>
<text text-anchor="start" x="716.65" y="-569.16" font-family="Helvetica,sans-Serif" font-weight="bold" font-size="32.00" fill="#29235c">ID</text>
<text text-anchor="start" x="748.64" y="-569.16" font-family="Helvetica,sans-Serif" font-size="32.00" fill="#29235c"> &#160;&#160;&#160;</text>
<text text-anchor="start" x="1023.87" y="-569.16" font-family="Helvetica,sans-Serif" font-style="italic" font-size="32.00" fill="#29235c">int</text>
<polygon fill="#e7e2dd" stroke="transparent" points="705.65,-487.96 705.65,-547.96 1068.65,-547.96 1068.65,-487.96 705.65,-487.96"/>
<polygon fill="none" stroke="#29235c" points="705.65,-487.96 705.65,-547.96 1068.65,-547.96 1068.65,-487.96 705.65,-487.96"/>
<text text-anchor="start" x="716.63" y="-508.16" font-family="Helvetica,sans-Serif" font-size="32.00" fill="#29235c">Marques &#160;&#160;&#160;</text>
<text text-anchor="start" x="876.48" y="-509.16" font-family="Helvetica,sans-Serif" font-style="italic" font-size="32.00" fill="#29235c">varchar(255)</text>
<polygon fill="none" stroke="#29235c" stroke-width="2" points="704.15,-486.96 704.15,-668.96 1069.15,-668.96 1069.15,-486.96 704.15,-486.96"/>
</g>
<!-- Machines&#45;&gt;Marques -->
<!-- Machines&#45;&gt;Marques -->
<g id="edge8" class="edge">
<title>Machines:e&#45;&gt;Marques:w</title>
<path fill="none" stroke="#29235c" stroke-width="3" d="M503.57,-644.96C594.27,-644.96 609.4,-582.84 694.49,-578.23"/>
<polygon fill="#29235c" stroke="#29235c" stroke-width="3" points="694.75,-581.72 704.65,-577.96 694.56,-574.73 694.75,-581.72"/>
<text text-anchor="middle" x="695.76" y="-549.16" font-family="Helvetica,sans-Serif" font-size="32.00" fill="#29235c">1</text>
<text text-anchor="middle" x="497.35" y="-616.16" font-family="Helvetica,sans-Serif" font-size="32.00" fill="#29235c">*</text>
</g>
</g>
</svg>
